<?xml version="1.0" encoding="iso-8859-1"?>
<!-- Generator: Adobe Illustrator 19.0.0, SVG Export Plug-In . SVG Version: 6.00 Build 0)  -->
<svg version="1.1" id="Layer_1" xmlns="http://www.w3.org/2000/svg" xmlns:xlink="http://www.w3.org/1999/xlink" x="0px" y="0px"
	 viewBox="0 0 511.999 511.999" style="enable-background:new 0 0 511.999 511.999;" xml:space="preserve">
<path style="fill:#E4EAF8;" d="M459.039,89.262L375.336,5.554C371.78,1.998,366.956,0,361.927,0H94.815
	c-5.237,0-9.481,4.245-9.481,9.481v493.037c0,5.236,4.245,9.481,9.481,9.481h360.296c5.237,0,9.481-4.245,9.481-9.481V102.671
	C464.593,97.641,462.595,92.818,459.039,89.262z"/>
<path style="fill:#D5DCED;" d="M379.259,265.481H85.333v170.667h293.926c10.473,0,18.963-8.49,18.963-18.963V284.444
	C398.222,273.971,389.732,265.481,379.259,265.481z"/>
<path style="fill:#00AAF0;" d="M360.296,417.185H66.37c-10.473,0-18.963-8.49-18.963-18.963V265.481
	c0-10.473,8.49-18.963,18.963-18.963h293.926c10.473,0,18.963,8.49,18.963,18.963v132.741
	C379.259,408.695,370.769,417.185,360.296,417.185z"/>
<path style="fill:#D5DCED;" d="M436.148,94.815h-66.37V1.76C367.329,0.642,364.67,0,361.927,0h-11.112v94.815
	c0,10.454,8.509,18.963,18.963,18.963h66.37c5.241,0,9.481-4.241,9.481-9.481C445.63,99.056,441.389,94.815,436.148,94.815z"/>
<path style="fill:#0096DC;" d="M170.667,388.741c-47.128,0-85.333-38.205-85.333-85.333v-56.889H66.37
	c-10.473,0-18.963,8.49-18.963,18.963v132.741c0,10.473,8.49,18.963,18.963,18.963h265.481c7.855,0,14.222-6.367,14.222-14.222l0,0
	c0-7.855-6.367-14.222-14.222-14.222H170.667V388.741z"/>
<g>
	<path style="fill:#FFFFFF;" d="M232.296,284.444h-28.444c-5.241,0-9.481,4.241-9.481,9.481v75.852c0,5.241,4.241,9.481,9.481,9.481
		s9.481-4.241,9.481-9.481v-18.963h18.963c18.296,0,33.185-14.889,33.185-33.185S250.593,284.444,232.296,284.444z M232.296,331.852
		h-18.963v-28.444h18.963c7.843,0,14.222,6.38,14.222,14.222S240.139,331.852,232.296,331.852z"/>
	<path style="fill:#FFFFFF;" d="M170.667,284.444h-11.065c-3.907,0-7.417,2.398-8.833,6.046l-13.287,34.157l-13.287-34.157
		c-1.417-3.648-4.926-6.046-8.833-6.046h-11.065c-5.241,0-9.481,4.241-9.481,9.481v75.852c0,5.241,4.241,9.481,9.481,9.481
		c5.241,0,9.481-4.241,9.481-9.481v-53.759l14.87,38.231c1.417,3.648,4.926,6.046,8.833,6.046c3.907,0,7.417-2.398,8.833-6.046
		l14.87-38.231v53.759c0,5.241,4.241,9.481,9.481,9.481c5.241,0,9.481-4.241,9.481-9.481v-75.852
		C180.148,288.685,175.907,284.444,170.667,284.444z"/>
	<path style="fill:#FFFFFF;" d="M331.852,284.444c-5.241,0-9.481,4.241-9.481,9.481v37.926H296.01l7.213-36.065
		c1.028-5.139-2.306-10.13-7.435-11.157c-5.111-1.046-10.13,2.296-11.157,7.435l-9.481,47.407c-0.556,2.787,0.167,5.676,1.963,7.87
		c1.806,2.194,4.491,3.472,7.333,3.472h37.926v18.963c0,5.241,4.241,9.481,9.481,9.481c5.241,0,9.482-4.241,9.482-9.481v-75.852
		C341.333,288.685,337.093,284.444,331.852,284.444z"/>
</g>
<g>
</g>
<g>
</g>
<g>
</g>
<g>
</g>
<g>
</g>
<g>
</g>
<g>
</g>
<g>
</g>
<g>
</g>
<g>
</g>
<g>
</g>
<g>
</g>
<g>
</g>
<g>
</g>
<g>
</g>
</svg>
