<svg id="Layer_1" enable-background="new 0 0 64 64" height="512" viewBox="0 0 64 64" width="512" xmlns="http://www.w3.org/2000/svg"><g><g><g><path d="m55.994 13.886c-.018-.151-.196-1.502-1.115-2.422l-10.344-10.342c-.919-.919-2.27-1.098-2.422-1.115-.037-.005-.075-.007-.113-.007h-29c-2.757 0-5 2.243-5 5v54c0 2.757 2.243 5 5 5h38c2.757 0 5-2.243 5-5v-45c0-.038-.002-.076-.006-.114z" fill="#ffdaaa"/><path d="m54.879 11.465-10.344-10.343c-.919-.919-2.27-1.098-2.422-1.115-.286-.033-.566.057-.779.248-.213.189-.334.46-.334.745v9c0 2.757 2.243 5 5 5h9c.285 0 .557-.122.746-.335.189-.212.279-.496.248-.779-.017-.151-.196-1.502-1.115-2.421z" fill="#ffb655"/></g></g><g><g><g><path d="m32 39c-1.105 0-2-.896-2-2v-2c0-2.893 2.055-4.423 3.555-5.541 1.606-1.198 2.445-1.896 2.445-3.459 0-2.206-1.794-4-4-4s-4 1.794-4 4c0 1.104-.896 2-2 2-1.105 0-2-.896-2-2 0-4.411 3.589-8 8-8s8 3.589 8 8c0 3.643-2.344 5.39-4.056 6.666-1.411 1.052-1.944 1.526-1.944 2.334v2c0 1.105-.895 2-2 2z" fill="#957856"/></g><g><circle cx="32" cy="44" fill="#957856" r="2"/></g></g></g></g></svg>